<svg width="48" height="48" xmlns="http://www.w3.org/2000/svg">

 <g>
  <title>background</title>
  <rect fill="none" id="canvas_background" height="50" width="50" y="-1" x="-1"/>
 </g>
 <g>
  <title>Layer 1</title>
  <path fill="#00d877" stroke="null" id="svg_1" d="m36.170437,20.243153c0,-3.607572 -2.933798,-6.532002 -6.55334,-6.532002c-2.384231,0 -4.470433,1.269312 -5.616925,3.166774c-1.146492,-1.897462 -3.233041,-3.166774 -5.617272,-3.166774c-3.619542,0 -6.55334,2.92443 -6.55334,6.532002c0,1.877166 0.7959,3.568367 2.068161,4.759788l-0.001735,0l9.382185,8.948499c0.172087,0.206087 0.430216,0.337408 0.719571,0.337408c0.268018,0 0.509321,-0.113279 0.680019,-0.294212l9.427636,-8.991695l-0.002776,0c1.272434,-1.191248 2.067814,-2.882449 2.067814,-4.759788"/>
 </g>
</svg>